<svg xmlns="http://www.w3.org/2000/svg" version="1.1" xmlns:xlink="http://www.w3.org/1999/xlink" xmlns:svgjs="http://svgjs.dev/svgjs" width="1000" height="202" viewBox="0 0 1000 202"><g transform="matrix(1,0,0,1,-0.6060517475617075,0.5677313743289147)"><svg viewBox="0 0 396 80" data-background-color="#ffffff" preserveAspectRatio="xMidYMid meet" height="202" width="1000" xmlns="http://www.w3.org/2000/svg" xmlns:xlink="http://www.w3.org/1999/xlink"><g id="tight-bounds" transform="matrix(1,0,0,1,0.23999649203443596,-0.22484400018328188)"><svg viewBox="0 0 395.52 80.44968633315325" height="80.44968633315325" width="395.52"><g><svg viewBox="0 0 395.52 80.44968633315325" height="80.44968633315325" width="395.52"><g><svg viewBox="0 0 495.30330501774966 100.74584225437927" height="80.44968633315325" width="395.52"><g transform="matrix(1,0,0,1,0,13.923629428789027)"><svg viewBox="0 0 395.52 72.89858339680121" height="72.89858339680121" width="395.52"><g id="textblocktransform"><svg viewBox="0 0 395.52 72.89858339680121" height="72.89858339680121" width="395.52" id="textblock"><g><svg viewBox="0 0 395.52 72.89858339680121" height="72.89858339680121" width="395.52"><g transform="matrix(1,0,0,1,0,0)"><svg width="395.52" viewBox="4.25 -35.650001525878906 196.94000244140625 36.30000305175781" height="72.89858339680121" data-palette-color="#e56d90"><path d="M5.5 0L4.25 0 4.25-27.55Q4.3-29.85 5.2-31.53 6.1-33.2 7.75-34.1 9.4-35 11.75-35L11.75-35 23.85-35 23.85-33.85 11.85-33.85Q8.8-33.85 7.15-32.1 5.5-30.35 5.5-27.55L5.5-27.55 5.5-18.25 21.85-18.25 21.85-17.1 5.5-17.1 5.5 0ZM24.2 0L22.85 0 35.55-32.5Q36.25-34.25 37-34.95 37.75-35.65 38.9-35.65L38.9-35.65Q40.1-35.65 40.87-34.95 41.65-34.25 42.3-32.55L42.3-32.55 55.1 0 53.75 0 49.55-10.6 28.35-10.6 24.2 0ZM36.75-32.1L28.8-11.75 49.1-11.75 41.1-32.1Q40.65-33.2 40.2-33.85 39.75-34.5 38.9-34.5L38.9-34.5Q38.05-34.5 37.62-33.88 37.2-33.25 36.75-32.1L36.75-32.1ZM76.3 0L73.19 0Q69.3 0 66.02-1.38 62.74-2.75 60.34-5.18 57.95-7.6 56.64-10.78 55.34-13.95 55.34-17.55L55.34-17.55Q55.34-21.15 56.64-24.3 57.95-27.45 60.34-29.85 62.74-32.25 66.02-33.63 69.3-35 73.19-35L73.19-35 76.3-35 76.3-33.85 73.34-33.85Q69.84-33.85 66.82-32.6 63.8-31.35 61.55-29.15 59.3-26.95 58.02-23.98 56.74-21 56.74-17.55L56.74-17.55Q56.74-14.05 58.02-11.08 59.3-8.1 61.55-5.88 63.8-3.65 66.82-2.43 69.84-1.2 73.34-1.2L73.34-1.2 76.3-1.2 76.3 0ZM102.74 0L89.69 0Q86.79 0 84.79-1.33 82.79-2.65 81.77-4.75 80.74-6.85 80.74-9.1L80.74-9.1Q80.74-11.9 82.24-14.38 83.74-16.85 86.79-17.8L86.79-17.8Q83.79-19 82.42-21.23 81.04-23.45 81.04-25.9L81.04-25.9Q81.04-28.4 82.19-30.45 83.34-32.5 85.32-33.73 87.29-34.95 89.74-34.95L89.74-34.95 102.74-34.95 102.74-33.8 89.89-33.8Q87.64-33.8 85.94-32.75 84.24-31.7 83.27-29.9 82.29-28.1 82.29-25.9L82.29-25.9Q82.29-23.9 83.34-22.18 84.39-20.45 86.17-19.43 87.94-18.4 90.19-18.4L90.19-18.4 100.74-18.4 100.74-17.25 90.54-17.25Q87.69-17.25 85.79-16.05 83.89-14.85 82.94-12.98 81.99-11.1 81.99-9.05L81.99-9.05Q81.99-7.05 82.89-5.25 83.79-3.45 85.59-2.3 87.39-1.15 90.04-1.15L90.04-1.15 102.74-1.15 102.74 0ZM110.74 0L109.49 0 109.49-35 124.39-35Q127.44-35 129.97-33.65 132.49-32.3 133.99-29.88 135.49-27.45 135.49-24.2L135.49-24.2Q135.49-21.1 134.06-18.68 132.64-16.25 130.09-14.88 127.54-13.5 124.09-13.5L124.09-13.5 110.74-13.5 110.74 0ZM110.74-33.85L110.74-14.65 123.99-14.65Q126.84-14.65 129.17-15.78 131.49-16.9 132.87-19.05 134.24-21.2 134.24-24.2L134.24-24.2Q134.24-27.25 132.87-29.4 131.49-31.55 129.19-32.7 126.89-33.85 124.19-33.85L124.19-33.85 110.74-33.85ZM163.44 0L150.39 0Q147.49 0 145.49-1.33 143.49-2.65 142.46-4.75 141.44-6.85 141.44-9.1L141.44-9.1Q141.44-11.9 142.94-14.38 144.44-16.85 147.49-17.8L147.49-17.8Q144.49-19 143.11-21.23 141.74-23.45 141.74-25.9L141.74-25.9Q141.74-28.4 142.89-30.45 144.04-32.5 146.01-33.73 147.99-34.95 150.44-34.95L150.44-34.95 163.44-34.95 163.44-33.8 150.59-33.8Q148.34-33.8 146.64-32.75 144.94-31.7 143.96-29.9 142.99-28.1 142.99-25.9L142.99-25.9Q142.99-23.9 144.04-22.18 145.09-20.45 146.86-19.43 148.64-18.4 150.89-18.4L150.89-18.4 161.44-18.4 161.44-17.25 151.24-17.25Q148.39-17.25 146.49-16.05 144.59-14.85 143.64-12.98 142.69-11.1 142.69-9.05L142.69-9.05Q142.69-7.05 143.59-5.25 144.49-3.45 146.29-2.3 148.09-1.15 150.74-1.15L150.74-1.15 163.44-1.15 163.44 0ZM193.38 0.65L193.38 0.65Q191.09 0.65 189.26-0.43 187.44-1.5 186.38-3.45 185.34-5.4 185.34-8L185.34-8 185.34-27.35Q185.34-29.4 184.38-31.03 183.44-32.65 181.86-33.58 180.28-34.5 178.38-34.5L178.38-34.5Q176.49-34.5 174.88-33.58 173.28-32.65 172.36-31.03 171.44-29.4 171.44-27.35L171.44-27.35 171.44 0 170.19 0 170.19-27Q170.19-29.6 171.24-31.55 172.28-33.5 174.13-34.58 175.99-35.65 178.38-35.65L178.38-35.65Q180.74-35.65 182.59-34.58 184.44-33.5 185.51-31.55 186.59-29.6 186.59-27L186.59-27 186.59-7.65Q186.59-5.55 187.53-3.95 188.49-2.35 190.03-1.43 191.59-0.5 193.38-0.5L193.38-0.5Q195.19-0.5 196.69-1.43 198.19-2.35 199.06-3.95 199.94-5.55 199.94-7.65L199.94-7.65 199.94-35 201.19-35 201.19-8Q201.19-5.4 200.19-3.45 199.19-1.5 197.44-0.43 195.69 0.65 193.38 0.65Z" opacity="1" transform="matrix(1,0,0,1,0,0)" fill="#e56d90" class="undefined-text-0" data-fill-palette-color="primary" id="text-0"></path></svg></g></svg></g></svg></g></svg></g><g transform="matrix(1,0,0,1,412.7296059739832,0)"><svg viewBox="0 0 82.57369904376644 100.74584225437927" height="100.74584225437927" width="82.57369904376644"><g><svg xmlns="http://www.w3.org/2000/svg" xmlns:xlink="http://www.w3.org/1999/xlink" version="1.1" x="0" y="0" viewBox="7.187000274658203 0.4850001335144043 81.16899108886719 99.03199768066406" enable-background="new 0 0 100 100" xml:space="preserve" height="100.74584225437927" width="82.57369904376644" class="icon-icon-0" data-fill-palette-color="accent" id="icon-0"><g fill="#e56d90" data-fill-palette-color="accent"><path d="M49.877 92.378c12.023 0 21.769-9.748 21.769-21.771 0-3.732-0.938-7.246-2.594-10.314 2.576-1.014 4.4-3.525 4.4-6.461 0-3.074-2.009-5.688-4.778-6.598-1.8-0.565-3.007-3.102-2.419-6.652 0.205-1.007 0.289-2.046 0.289-3.106 0-5.175-2.288-10.017-6.007-13.074l-5.349-4.843h-5.312-5.314L39.215 24.4c-3.718 3.058-6.006 7.899-6.006 13.074 0 1.061 0.083 2.1 0.289 3.106 0.589 3.551-0.618 6.087-2.419 6.652-2.77 0.91-4.779 3.523-4.779 6.598 0 2.936 1.825 5.447 4.402 6.461-1.655 3.068-2.594 6.582-2.594 10.314C28.107 82.63 37.854 92.378 49.877 92.378L49.877 92.378zM41.344 20.697l1.101-0.997-0.618 0.062c-6.685 0.698-12.285 2.133-15.35 3.378-1.158 0.439-1.982 1.56-1.982 2.873l-0.003 65.015c0 1.309 0.819 2.426 1.973 2.869 4.228 1.719 13.359 3.811 23.409 3.811 10.041 0 19.169-2.088 23.399-3.807 1.159-0.439 1.982-1.559 1.982-2.873l0.004-65.015c0-1.311-0.819-2.428-1.973-2.869-3.152-1.282-9.027-2.77-15.979-3.444l1.102 0.998c6.354 0.714 11.665 2.087 14.551 3.262 0.828 0.314 1.421 1.117 1.421 2.054l-0.003 65.015c0 0.936-0.593 1.74-1.422 2.055-4.108 1.67-13.129 3.746-23.083 3.746-9.954 0-18.975-2.076-23.083-3.746-0.829-0.314-1.421-1.119-1.421-2.055l0.003-65.015c0-0.937 0.593-1.739 1.421-2.054C29.673 22.787 34.966 21.412 41.344 20.697L41.344 20.697zM32.049 4.233c-1.696 0-3.072 1.376-3.072 3.072v7.119c0 1.695 1.375 3.071 3.072 3.071h35.607c1.696 0 3.072-1.376 3.072-3.071V7.306c0-1.696-1.376-3.072-3.072-3.072H32.049L32.049 4.233zM83.297 38.223c0.086-0.89 0.836-1.584 1.747-1.584h1.557c0.969 0 1.755 0.785 1.755 1.755v24.188c0 0.969-0.786 1.754-1.755 1.754h-1.557c-0.911 0-1.661-0.695-1.747-1.584l-3.604 1.258h-2.779v18.26h2.078c0.112-0.357 0.445-0.615 0.839-0.615h1.131c0.484 0 0.879 0.393 0.879 0.877v8.281c0 0.486-0.395 0.879-0.879 0.879h-1.131c-0.394 0-0.727-0.26-0.839-0.615h-2.078v5.809c0 1.453-1.179 2.631-2.632 2.631H25.688c-1.454 0-2.633-1.178-2.633-2.631V66.597c-1.026-0.955-1.911-2.451-2.568-4.316-0.462 4.266-1.328 9.307-3.368 15.404-1.548 4.629-2.693 9.145-2.268 12.977 0.148 1.34-0.867 1.543-1.016 0.203-0.097-0.873-0.165-1.783-0.198-2.719-0.327 0.229-0.726 0.363-1.157 0.363H9.208c-1.117 0-2.021-0.904-2.021-2.021v-1.668c0-1.117 0.904-2.021 2.021-2.021h3.272c0.516 0 0.986 0.193 1.343 0.512 0.229-2.027 0.665-4.131 1.379-6.266 2.51-7.502 3.191-13.348 3.566-18.158 0.188-2.41 0.272-5.039 0.644-7.57 0.461-4.098 1.83-7.47 3.642-9.156V3.117c0-1.454 1.179-2.632 2.633-2.632h48.594c1.453 0 2.632 1.178 2.632 2.632v23.421h2.078c0.112-0.355 0.445-0.614 0.839-0.614h1.131c0.484 0 0.879 0.394 0.879 0.877v8.282c0 0.485-0.395 0.877-0.879 0.877h-1.131c-0.394 0-0.727-0.258-0.839-0.615h-2.078v1.618h2.779L83.297 38.223 83.297 38.223zM37.145 62.155c-1.61 2.42-2.548 5.326-2.548 8.451 0 8.439 6.841 15.281 15.28 15.281 8.438 0 15.279-6.842 15.279-15.281 0-3.1-0.924-5.982-2.511-8.393 0.424 0.189 0.864 0.352 1.318 0.477 1.318 2.34 2.07 5.041 2.07 7.916 0 8.926-7.233 16.158-16.157 16.158-8.924 0-16.159-7.232-16.159-16.158 0-2.887 0.758-5.6 2.086-7.945C36.267 62.526 36.715 62.358 37.145 62.155L37.145 62.155zM60.959 53.831c0-3.02 2.448-5.469 5.468-5.469 3.019 0 5.468 2.449 5.468 5.469s-2.449 5.467-5.468 5.467C63.407 59.298 60.959 56.851 60.959 53.831L60.959 53.831zM64.711 53.831c0 0.947 0.769 1.715 1.716 1.715s1.715-0.768 1.715-1.715-0.768-1.717-1.715-1.717S64.711 52.884 64.711 53.831L64.711 53.831zM27.772 53.831c0-3.02 2.447-5.469 5.467-5.469 3.02 0 5.468 2.449 5.468 5.469s-2.448 5.467-5.468 5.467C30.22 59.298 27.772 56.851 27.772 53.831L27.772 53.831zM31.523 53.831c0 0.947 0.769 1.715 1.716 1.715 0.948 0 1.716-0.768 1.716-1.715s-0.768-1.717-1.716-1.717C32.292 52.114 31.523 52.884 31.523 53.831L31.523 53.831zM37.119 70.606c0-7.045 5.712-12.758 12.758-12.758 7.045 0 12.757 5.713 12.757 12.758 0 7.047-5.712 12.758-12.757 12.758C42.831 83.364 37.119 77.653 37.119 70.606L37.119 70.606zM43.511 67.196c0 1.713 1.39 3.104 3.103 3.104s3.103-1.391 3.103-3.104-1.39-3.104-3.103-3.104S43.511 65.483 43.511 67.196L43.511 67.196zM37.119 37.475c0-7.048 5.712-12.759 12.758-12.759 7.045 0 12.757 5.711 12.757 12.759 0 7.046-5.712 12.757-12.757 12.757C42.831 50.231 37.119 44.521 37.119 37.475L37.119 37.475zM43.511 33.306c0 1.713 1.39 3.102 3.103 3.102s3.103-1.389 3.103-3.102c0-1.715-1.39-3.104-3.103-3.104S43.511 31.591 43.511 33.306L43.511 33.306zM67.556 62.954c1.017 2.346 1.579 4.934 1.579 7.652 0 10.639-8.622 19.26-19.258 19.26-10.637 0-19.26-8.621-19.26-19.26 0-2.715 0.562-5.299 1.576-7.641 0.307 0.035 0.619 0.053 0.934 0.057-1.048 2.312-1.632 4.881-1.632 7.584 0 10.152 8.229 18.381 18.382 18.381 10.152 0 18.381-8.229 18.381-18.381 0-2.705-0.584-5.271-1.634-7.586C66.938 63.015 67.249 62.993 67.556 62.954L67.556 62.954zM32.049 5.111h35.607c1.212 0 2.194 0.983 2.194 2.194v7.119c0 1.212-0.982 2.193-2.194 2.193H32.049c-1.211 0-2.194-0.981-2.194-2.193V7.306C29.855 6.095 30.837 5.111 32.049 5.111L32.049 5.111z" fill="#e56d90" data-fill-palette-color="accent"></path></g></svg></g></svg></g></svg></g></svg></g><defs></defs></svg><rect width="395.52" height="80.44968633315325" fill="none" stroke="none" visibility="hidden"></rect></g></svg></g></svg>